<svg xmlns="http://www.w3.org/2000/svg" viewBox="0 0 103.63 42.68">
                    <g>
                        <g>
                            <rect
                                className={`${styles.coloredLine} border`}
                                x="30.08"
                                y="11.04"
                                width="2.54"
                                height="15.01"
                                rx="0.83"
                                transform="translate(-3.93 27.63) rotate(-45.04)"
                            />
                            <path
                                className={[styles.coloredLine, 'border'].join(' ')}
                                d="M33.69,17.68a.83.83,0,0,0,1.17,0l.62-.62a.82.82,0,0,0,0-1.17l-7.8-7.8a.83.83,0,0,0-1.17,0l-.62.62a.83.83,0,0,0,0,1.17Z"
                            />
                            <rect
                                className={[styles.coloredLine, 'border'].join(' ')}
                                x="83.39"
                                y="11.04"
                                width="2.53"
                                height="15.01"
                                rx="0.83"
                                transform="translate(11.72 65.35) rotate(-45.04)"
                            />
                            <rect
                                className={[styles.coloredLine, 'border'].join(' ')}
                                x="82.73"
                                y="6.54"
                                width="2.53"
                                height="12.68"
                                rx="0.83"
                                transform="translate(15.45 63.11) rotate(-44.95)"
                            />
                            <path
                                style={{ fill: glassColor }}
                                d="M102,18.8H99.65a21.34,21.34,0,0,0-42.31-.5c-1.16.25-5.65.5-5.65.5s-4.23-.22-5.4-.45A21.34,21.34,0,0,0,4,18.8H1.65A1.65,1.65,0,0,0,0,20.45v1.79a1.65,1.65,0,0,0,1.65,1.65H4a21.34,21.34,0,0,0,42.32.47c1.19-.24,5.4-.47,5.4-.47s4.47.26,5.66.52a21.34,21.34,0,0,0,42.3-.52H102a1.65,1.65,0,0,0,1.65-1.65V20.45A1.65,1.65,0,0,0,102,18.8ZM25.16,37.6A16.26,16.26,0,1,1,41.42,21.34,16.26,16.26,0,0,1,25.16,37.6Zm53.31,0A16.26,16.26,0,1,1,94.72,21.34,16.26,16.26,0,0,1,78.47,37.6Z"
                            />
                        </g>
                    </g>
                </svg>