 <svg xmlns="http://www.w3.org/2000/svg" viewBox="0 0 153.16 126.87">
                    <g>
                        <g>
                            <path d="M145.34,73.26v-38H132a93.15,93.15,0,0,0,1.5-12.63l-7.86,5.72c4.29-5,0-28.39,0-28.39s-5.72,11.23-41.46,8.37S43.42,19.81,43.42,19.81c-4.29-4.29,0-11.44,0-11.44-10,5.72-5,15-5,15H26.9l7.94,5a14.45,14.45,0,0,0-5.52,6.91H7.82v38L0,81.08l7.82,7.83,2.11,38h20.3L28.12,86.68a1,1,0,1,0-2,0V117.5H17V86.39l-5.3-5.31,5.3-5.3V44.66H27.12A45.64,45.64,0,0,0,27,51.74h7.15a16.76,16.76,0,0,1,5.72-11.2c12.15-15,63.62-6.25,63.62-6.25l5.72-8.42L107,34.29c12.13,3,13.21,17.18,13.21,17.18h5.38a23.52,23.52,0,0,0,3.8-6.81h6.74V75.78l5.31,5.3-5.31,5.31V117.5H125l2.11,9.37h20.3l-2.11-38,7.82-7.83Z" />
                        </g>
                    </g>
                </svg>